# xmcd
#
# Track frame offsets:
#	150
#	21566
#	37806
#	49806
#	76749
#	97609
#	118049
#	132052
#	143615
#	161808
#	182214
#	208733
#	229977
#	249635
#
# Disc length: 3420 seconds
#
# Revision: 0
# Processed by: cddbd v1.4PL0 Copyright (c) Steve Scherf et al.
# Submitted via: EasyCDDAExtractor 5.0.5.1
#
DISCID=b70d5a0e
DTITLE=趙薇 - 情深深雨濛濛音樂全紀錄
DYEAR=2001
DGENRE=
TTITLE0=情深深雨濛濛
TTITLE1=好想好想
TTITLE2=小冤家
TTITLE3=離別的車站
TTITLE4=不由自主
TTITLE5=自從離別後
TTITLE6=新蘭花草
TTITLE7=滿場飛圓舞曲
TTITLE8=煙雨濛濛
TTITLE9=情深深雨濛濛
TTITLE10=離別的車站
TTITLE11=情深深雨濛濛
TTITLE12=自從離別後
TTITLE13=船
EXTD=
EXTT0=
EXTT1=
EXTT2=
EXTT3=
EXTT4=
EXTT5=
EXTT6=
EXTT7=
EXTT8=
EXTT9=
EXTT10=
EXTT11=
EXTT12=
EXTT13=
PLAYORDER=
